<?xml version="1.0" standalone="no"?><!DOCTYPE svg PUBLIC "-//W3C//DTD SVG 1.1//EN" "http://www.w3.org/Graphics/SVG/1.1/DTD/svg11.dtd"><svg t="1589893592746" class="icon" viewBox="0 0 1024 1024" version="1.1" xmlns="http://www.w3.org/2000/svg" p-id="1736" xmlns:xlink="http://www.w3.org/1999/xlink" width="300" height="300"><defs><style type="text/css"></style></defs><path d="M785.375 785.375A387 387 0 0 1 155.75000029 662.00000029 387 387 0 0 1 361.99999971 155.75000029 387 387 0 0 1 868.24999971 361.99999971a386.25000029 386.25000029 0 0 1-82.87499971 423.75000058zM512 62a450 450 0 1 0 450 450A450 450 0 0 0 512 62z" fill="" p-id="1737"></path><path d="M678.5 417.87500029h-146.62500029l103.87500029-103.5a31.5 31.5 0 1 0-44.62499971-44.62500058L512 350.37500029 430.25000029 268.62499971a31.87500029 31.87500029 0 0 0-45 45l103.87499942 103.87500029H344.375a30.375 30.375 0 0 0-29.99999971 30.375v2.99999971a29.99999971 29.99999971 0 0 0 29.99999971 29.62500029h135.74999971v56.25H372.5a30.375 30.375 0 0 0-29.62500029 30.75000029v3.375a28.50000029 28.50000029 0 0 0 29.62500029 28.87499971h107.62499971v131.24999971a31.5 31.5 0 0 0 63.37500029 0v-131.24999971h106.875a29.99999971 29.99999971 0 0 0 30.75000029-28.87499971v-3.375a31.5 31.5 0 0 0-30.75000029-30.75000029h-106.875V482.00000029h135a29.99999971 29.99999971 0 0 0 30.75000029-29.25v-3.375a32.24999971 32.24999971 0 0 0-30.75000029-31.5z" fill="" p-id="1738"></path></svg>